<svg width="24" height="44" viewBox="0 0 24 44" fill="none" xmlns="http://www.w3.org/2000/svg">
<g clip-path="url(#clip0_20_197)">
<path fill-rule="evenodd" clip-rule="evenodd" d="M23.2017 0.642501C22.318 -0.215499 20.8889 -0.215499 20.0075 0.642501L1.32457 18.8233C0.906366 19.2241 0.57336 19.7064 0.345809 20.241C0.118258 20.7756 0.000915405 21.3512 0.000915354 21.933C0.000915303 22.5147 0.118258 23.0904 0.345809 23.625C0.57336 24.1596 0.906365 24.6419 1.32457 25.0427L20.1428 43.3577C20.5698 43.767 21.1354 43.9971 21.7246 44.0012C22.3138 44.0053 22.8825 43.7831 23.3151 43.3797C23.5294 43.1805 23.7009 42.9391 23.8189 42.6704C23.937 42.4016 23.999 42.1113 24.0013 41.8175C24.0035 41.5236 23.9459 41.2323 23.832 40.9618C23.7181 40.6913 23.5504 40.4472 23.3391 40.2447L6.11585 23.4873C5.90657 23.2869 5.73992 23.0457 5.62605 22.7783C5.51217 22.5109 5.45344 22.2229 5.45344 21.9319C5.45344 21.6409 5.51217 21.3529 5.62605 21.0855C5.73992 20.8181 5.90657 20.5769 6.11585 20.3765L23.2017 3.7511C23.4109 3.5509 23.5775 3.30985 23.6913 3.04264C23.8052 2.77542 23.8639 2.48764 23.8639 2.1968C23.8639 1.90597 23.8052 1.61818 23.6913 1.35097C23.5775 1.08375 23.4109 0.842701 23.2017 0.642501Z" fill="white"/>
</g>
<defs>
<clipPath id="clip0_20_197">
<rect width="24" height="44" fill="white" transform="translate(24 44) rotate(-180)"/>
</clipPath>
</defs>
</svg>
