<svg width="24" height="44" viewBox="0 0 24 44" fill="none" xmlns="http://www.w3.org/2000/svg">
<g clip-path="url(#clip0_20_197)">
<path fill-rule="evenodd" clip-rule="evenodd" d="M0.798336 43.3575C1.68197 44.2155 3.11106 44.2155 3.99252 43.3575L22.6754 25.1767C23.0936 24.7759 23.4266 24.2936 23.6542 23.759C23.8817 23.2244 23.9991 22.6488 23.9991 22.067C23.9991 21.4853 23.8817 20.9096 23.6542 20.375C23.4266 19.8404 23.0936 19.3581 22.6754 18.9573L3.85725 0.642299C3.43016 0.232983 2.86459 0.00292076 2.27538 -0.00116533C1.68617 -0.00525142 1.11751 0.216945 0.684882 0.620299C0.470566 0.819487 0.299084 1.06092 0.181057 1.32964C0.0630305 1.59837 0.000970546 1.88866 -0.00127933 2.18255C-0.0035292 2.47644 0.0540789 2.76767 0.167978 3.0382C0.281876 3.30873 0.449641 3.5528 0.660882 3.7553L17.8842 20.5127C18.0934 20.7131 18.2601 20.9543 18.374 21.2217C18.4878 21.4891 18.5466 21.7771 18.5466 22.0681C18.5466 22.3591 18.4878 22.6471 18.374 22.9145C18.2601 23.1819 18.0934 23.4231 17.8842 23.6235L0.798336 40.2489C0.589122 40.4491 0.422514 40.6901 0.308662 40.9574C0.194809 41.2246 0.136095 41.5124 0.136095 41.8032C0.136095 42.094 0.194809 42.3818 0.308662 42.649C0.422514 42.9163 0.589122 43.1573 0.798336 43.3575Z" fill="white"/>
</g>
<defs>
<clipPath id="clip0_20_197">
<rect width="24" height="44" fill="white"/>
</clipPath>
</defs>
</svg>
