<svg width="169" height="155" viewBox="0 0 169 155" fill="none" xmlns="http://www.w3.org/2000/svg">
<path d="M15.0909 30.9091L42.7273 109.273H43.8182L71.4545 30.9091H83.2727L49.0909 124H37.4545L3.27273 30.9091H15.0909Z" fill="#278CFF"/>
<path d="M149.182 54.1818C148.636 49.5758 146.424 46 142.546 43.4545C138.667 40.9091 133.909 39.6364 128.273 39.6364C124.152 39.6364 120.546 40.303 117.455 41.6364C114.394 42.9697 112 44.803 110.273 47.1364C108.576 49.4697 107.727 52.1212 107.727 55.0909C107.727 57.5758 108.318 59.7121 109.5 61.5C110.712 63.2576 112.258 64.7273 114.136 65.9091C116.015 67.0606 117.985 68.0151 120.046 68.7727C122.106 69.5 124 70.0909 125.727 70.5455L135.182 73.0909C137.606 73.7273 140.303 74.6061 143.273 75.7273C146.273 76.8485 149.136 78.3788 151.864 80.3182C154.621 82.2273 156.894 84.6818 158.682 87.6818C160.47 90.6818 161.364 94.3636 161.364 98.7273C161.364 103.758 160.046 108.303 157.409 112.364C154.803 116.424 150.985 119.652 145.955 122.045C140.955 124.439 134.879 125.636 127.727 125.636C121.061 125.636 115.288 124.561 110.409 122.409C105.561 120.258 101.742 117.258 98.9546 113.409C96.197 109.561 94.6364 105.091 94.2728 100H105.909C106.212 103.515 107.394 106.424 109.455 108.727C111.546 111 114.182 112.697 117.364 113.818C120.576 114.909 124.03 115.455 127.727 115.455C132.03 115.455 135.894 114.758 139.318 113.364C142.742 111.939 145.455 109.97 147.455 107.455C149.455 104.909 150.455 101.939 150.455 98.5455C150.455 95.4545 149.591 92.9394 147.864 91C146.136 89.0606 143.864 87.4848 141.046 86.2727C138.227 85.0606 135.182 84 131.909 83.0909L120.455 79.8182C113.182 77.7273 107.424 74.7424 103.182 70.8636C98.9395 66.9848 96.8182 61.9091 96.8182 55.6364C96.8182 50.4242 98.2273 45.8788 101.046 42C103.894 38.0909 107.712 35.0606 112.5 32.9091C117.318 30.7273 122.697 29.6364 128.636 29.6364C134.636 29.6364 139.97 30.7121 144.636 32.8636C149.303 34.9848 153 37.8939 155.727 41.5909C158.485 45.2879 159.939 49.4848 160.091 54.1818H149.182Z" fill="#278CFF"/>
</svg>
